<svg id="visual" viewBox="0 0 900 600" width="900" height="600" xmlns="http://www.w3.org/2000/svg" xmlns:xlink="http://www.w3.org/1999/xlink" version="1.1"><rect x="0" y="0" width="900" height="600" fill="#FFFFFF"></rect><defs><linearGradient id="grad1_0" x1="33.3%" y1="100%" x2="100%" y2="0%"><stop offset="20%" stop-color="#ffffff" stop-opacity="1"></stop><stop offset="80%" stop-color="#ffffff" stop-opacity="1"></stop></linearGradient></defs><defs><linearGradient id="grad2_0" x1="0%" y1="100%" x2="66.7%" y2="0%"><stop offset="20%" stop-color="#ffffff" stop-opacity="1"></stop><stop offset="80%" stop-color="#ffffff" stop-opacity="1"></stop></linearGradient></defs><g transform="translate(900, 600)"><path d="M-378.6 0C-344.3 -23.2 -310 -46.5 -310.1 -83.1C-310.1 -119.7 -344.5 -169.6 -327.9 -189.3C-311.2 -209 -243.4 -198.4 -210 -210C-176.6 -221.6 -177.7 -255.3 -165 -285.8C-152.3 -316.2 -125.8 -343.4 -96 -358.4C-66.2 -373.3 -33.1 -375.9 0 -378.6L0 0Z" fill="#FA9884"></path></g><g transform="translate(0, 0)"><path d="M378.6 0C383.2 37.2 387.8 74.4 365.7 98C343.6 121.5 294.9 131.4 275.4 159C255.9 186.6 265.8 231.9 245.4 245.4C225 258.8 174.4 240.4 145.5 252C116.6 263.6 109.4 305.2 88.8 331.3C68.1 357.4 34.1 368 0 378.6L0 0Z" fill="#FA9884"></path></g></svg>