<svg xmlns="http://www.w3.org/2000/svg" version="1.1" xmlns:xlink="http://www.w3.org/1999/xlink" xmlns:svgjs="http://svgjs.dev/svgjs" width="1440" height="560" preserveAspectRatio="none" viewBox="0 0 1440 560"><g mask="url(&quot;#SvgjsMask1043&quot;)" fill="none"><path d="M1144.2 556.03L1179.67 556.03L1179.67 601.72L1144.2 601.72z" fill="rgba(250, 152, 132, 1)"></path><path d="M1165.48 421.66L1168.48 421.66L1168.48 443.88L1165.48 443.88z" fill="rgba(250, 152, 132, 1)"></path><path d="M501.99 508.77 a35.44 35.44 0 1 0 70.88 0 a35.44 35.44 0 1 0 -70.88 0z" stroke="rgba(250, 152, 132, 1)"></path><path d="M1090.67 321.59 a7.94 7.94 0 1 0 15.88 0 a7.94 7.94 0 1 0 -15.88 0z" fill="rgba(250, 152, 132, 1)"></path><path d="M1292.22 214.25L1303.02 214.25L1303.02 267.28L1292.22 267.28z" stroke="rgba(250, 152, 132, 1)"></path><path d="M260.56 64.95L303.91 64.95L303.91 108.3L260.56 108.3z" fill="rgba(250, 152, 132, 1)"></path><path d="M1172.76 155.46L1208.8 155.46L1208.8 191.5L1172.76 191.5z" stroke="rgba(250, 152, 132, 1)"></path><path d="M1258.83 322.34 a2.31 2.31 0 1 0 4.62 0 a2.31 2.31 0 1 0 -4.62 0z" fill="rgba(250, 152, 132, 1)"></path><path d="M999.1 510.62 a36.3 36.3 0 1 0 72.6 0 a36.3 36.3 0 1 0 -72.6 0z" stroke="rgba(250, 152, 132, 1)"></path><path d="M880.94 471.25L894.54 471.25L894.54 518.96L880.94 518.96z" fill="rgba(250, 152, 132, 1)"></path><path d="M742.53 30.87L760.3 30.87L760.3 48.64L742.53 48.64z" stroke="rgba(250, 152, 132, 1)"></path><path d="M377.67 460.35a45.65 45.65 0 1 0 34.47 84.54z" fill="rgba(250, 152, 132, 1)"></path><path d="M835.53 196.06a52.52 52.52 0 1 0-16.41 103.75z" stroke="rgba(250, 152, 132, 1)"></path><path d="M1307.27 110.68 a27.49 27.49 0 1 0 54.98 0 a27.49 27.49 0 1 0 -54.98 0z" fill="rgba(250, 152, 132, 1)"></path><path d="M933.7 56.25 a50.55 50.55 0 1 0 101.1 0 a50.55 50.55 0 1 0 -101.1 0z" fill="rgba(250, 152, 132, 1)"></path><path d="M49.08 360.99a17.5 17.5 0 1 0 5.96 34.49z" fill="rgba(250, 152, 132, 1)"></path><path d="M977.51 439.68L1005.48 439.68L1005.48 467.65L977.51 467.65z" stroke="rgba(250, 152, 132, 1)"></path><path d="M49.27 460.14L57.53 460.14L57.53 468.4L49.27 468.4z" fill="rgba(250, 152, 132, 1)"></path><path d="M766.67 464.59a38.15 38.15 0 1 0-75.5-11.04z" fill="rgba(250, 152, 132, 1)"></path><path d="M921.99 187.98L968.34 187.98L968.34 234.33L921.99 234.33z" stroke="rgba(250, 152, 132, 1)"></path><path d="M25.18 399.03a40.77 40.77 0 1 0 81.42 4.34z" fill="rgba(250, 152, 132, 1)"></path><path d="M1151.56 405.38 a54.63 54.63 0 1 0 109.26 0 a54.63 54.63 0 1 0 -109.26 0z" stroke="rgba(250, 152, 132, 1)"></path><path d="M956.37 379.22a13.16 13.16 0 1 0 8.23-25z" stroke="rgba(250, 152, 132, 1)"></path><path d="M1142.68 417.73a45.48 45.48 0 1 0 1.56 90.95z" stroke="rgba(250, 152, 132, 1)"></path><path d="M831.95 455.6 a21.85 21.85 0 1 0 43.7 0 a21.85 21.85 0 1 0 -43.7 0z" fill="rgba(250, 152, 132, 1)"></path><path d="M840.17 189.89L872.27 189.89L872.27 221.74L840.17 221.74z" fill="rgba(250, 152, 132, 1)"></path><path d="M1322.65 23.79L1361.89 23.79L1361.89 31.03L1322.65 31.03z" fill="rgba(250, 152, 132, 1)"></path><path d="M-19.88 77.47 a45.71 45.71 0 1 0 91.42 0 a45.71 45.71 0 1 0 -91.42 0z" stroke="rgba(250, 152, 132, 1)"></path><path d="M532.95 383.7L586.77 383.7L586.77 385.1L532.95 385.1z" stroke="rgba(250, 152, 132, 1)"></path><path d="M32.84 153.51 a28.35 28.35 0 1 0 56.7 0 a28.35 28.35 0 1 0 -56.7 0z" stroke="rgba(250, 152, 132, 1)"></path><path d="M1079.98 115.64L1100.85 115.64L1100.85 136.51L1079.98 136.51z" fill="rgba(250, 152, 132, 1)"></path><path d="M88.15 13.74L129.71 13.74L129.71 22.72L88.15 22.72z" stroke="rgba(250, 152, 132, 1)"></path><path d="M461.43 60.95L479.01 60.95L479.01 70.24L461.43 70.24z" fill="rgba(250, 152, 132, 1)"></path></g><defs><mask id="SvgjsMask1043"><rect width="1440" height="560" fill="#ffffff"></rect></mask></defs></svg>