<svg xmlns="http://www.w3.org/2000/svg" version="1.1" xmlns:xlink="http://www.w3.org/1999/xlink" xmlns:svgjs="http://svgjs.dev/svgjs" width="1440" height="560" preserveAspectRatio="none" viewBox="0 0 1440 560"><g mask="url(&quot;#SvgjsMask4905&quot;)" fill="none"><path d="M208.47 250.26999999999998 L96.84 215.48000000000002L83.65031512448084 301.87968487551916z" fill="rgba(232, 169, 169, 1)"></path><path d="M468.03 426.54a5.6 5.6 0 1 0 7.15 8.62 5.6 5.6 0 1 0-7.15-8.62zM478.24 438.86a5.6 5.6 0 1 0 7.15 8.62 5.6 5.6 0 1 0-7.15-8.62zM488.45 451.18a5.6 5.6 0 1 0 7.14 8.62 5.6 5.6 0 1 0-7.14-8.62zM498.66 463.5a5.6 5.6 0 1 0 7.14 8.62 5.6 5.6 0 1 0-7.14-8.62zM435.3 412.1a5.6 5.6 0 1 0 7.14 8.63 5.6 5.6 0 1 0-7.14-8.63zM445.51 424.42a5.6 5.6 0 1 0 7.14 8.63 5.6 5.6 0 1 0-7.14-8.63zM455.71 436.74a5.6 5.6 0 1 0 7.15 8.63 5.6 5.6 0 1 0-7.15-8.63zM465.92 449.06a5.6 5.6 0 1 0 7.15 8.63 5.6 5.6 0 1 0-7.15-8.63z" fill="rgba(232, 169, 169, 1)"></path><rect width="96" height="96" clip-path="url(&quot;#SvgjsClipPath4906&quot;)" x="325.81" y="293.42" fill="url(&quot;#SvgjsPattern4907&quot;)" transform="rotate(59.7, 373.81, 341.42)"></rect><path d="M627.29 493.3a5.6 5.6 0 1 0 2.34 10.95 5.6 5.6 0 1 0-2.34-10.95zM630.63 508.95a5.6 5.6 0 1 0 2.34 10.95 5.6 5.6 0 1 0-2.34-10.95zM633.97 524.59a5.6 5.6 0 1 0 2.34 10.96 5.6 5.6 0 1 0-2.34-10.96zM637.31 540.24a5.6 5.6 0 1 0 2.34 10.95 5.6 5.6 0 1 0-2.34-10.95zM604.96 465.34a5.6 5.6 0 1 0 2.34 10.96 5.6 5.6 0 1 0-2.34-10.96zM608.3 480.99a5.6 5.6 0 1 0 2.34 10.95 5.6 5.6 0 1 0-2.34-10.95zM611.64 496.64a5.6 5.6 0 1 0 2.34 10.95 5.6 5.6 0 1 0-2.34-10.95zM614.98 512.29a5.6 5.6 0 1 0 2.34 10.95 5.6 5.6 0 1 0-2.34-10.95zM582.63 437.39a5.6 5.6 0 1 0 2.34 10.95 5.6 5.6 0 1 0-2.34-10.95zM585.97 453.04a5.6 5.6 0 1 0 2.34 10.95 5.6 5.6 0 1 0-2.34-10.95zM589.31 468.68a5.6 5.6 0 1 0 2.34 10.96 5.6 5.6 0 1 0-2.34-10.96zM592.65 484.33a5.6 5.6 0 1 0 2.34 10.95 5.6 5.6 0 1 0-2.34-10.95z" stroke="rgba(232, 169, 169, 1)" stroke-width="2.25" stroke-dasharray="3, 2"></path><rect width="60" height="60" clip-path="url(&quot;#SvgjsClipPath4908&quot;)" x="399.79" y="49.04" fill="url(&quot;#SvgjsPattern4909&quot;)" transform="rotate(153.93, 429.79, 79.04)"></rect><circle r="65.63788014740888" cx="843.15" cy="176.85" fill="rgba(232, 169, 169, 1)"></circle><path d="M502.32 79.7L498.39 91.89 485.64 90.73 481.71 102.92 468.96 101.76 465.03 113.95 452.27 112.79M497.91 73.03L493.98 85.22 481.23 84.06 477.3 96.25 464.54 95.09 460.61 107.28 447.86 106.12M493.5 66.35L489.57 78.54 476.82 77.38 472.89 89.57 460.13 88.41 456.2 100.6 443.45 99.44" stroke="rgba(232, 169, 169, 1)" stroke-width="2.54" stroke-dasharray="3, 2"></path><circle r="47.02529143120387" cx="1335.22" cy="340.71" stroke="rgba(232, 169, 169, 1)" stroke-width="2.28"></circle><rect width="288" height="288" clip-path="url(&quot;#SvgjsClipPath4910&quot;)" x="380.34" y="138.78" fill="url(&quot;#SvgjsPattern4911&quot;)" transform="rotate(348.23, 524.34, 282.78)"></rect><rect width="301.76" height="301.76" clip-path="url(&quot;#SvgjsClipPath4912&quot;)" x="192.67" y="-53.59" fill="url(&quot;#SvgjsPattern4913&quot;)" transform="rotate(203.85, 343.55, 97.29)"></rect><circle r="77.74725346122436" cx="743.05" cy="464.2" stroke="rgba(232, 169, 169, 1)" stroke-width="2.79" stroke-dasharray="4, 4"></circle><rect width="307" height="307" clip-path="url(&quot;#SvgjsClipPath4914&quot;)" x="1190.35" y="-129.44" fill="url(&quot;#SvgjsPattern4915&quot;)" transform="rotate(48.61, 1343.85, 24.06)"></rect></g><defs><mask id="SvgjsMask4905"><rect width="1440" height="560" fill="#ffffff"></rect></mask><pattern x="0" y="0" width="6" height="6" patternUnits="userSpaceOnUse" id="SvgjsPattern4907"><path d="M0 6L3 0L6 6" stroke="rgba(232, 169, 169, 1)" fill="none"></path></pattern><clipPath id="SvgjsClipPath4906"><circle r="24" cx="373.81" cy="341.42"></circle></clipPath><pattern x="0" y="0" width="60" height="6" patternUnits="userSpaceOnUse" id="SvgjsPattern4909"><rect width="60" height="3" x="0" y="0" fill="rgba(232, 169, 169, 1)"></rect><rect width="60" height="3" x="0" y="3" fill="rgba(0, 0, 0, 0)"></rect></pattern><clipPath id="SvgjsClipPath4908"><circle r="15" cx="429.79" cy="79.04"></circle></clipPath><pattern x="0" y="0" width="6" height="6" patternUnits="userSpaceOnUse" id="SvgjsPattern4911"><path d="M3 1L3 5M1 3L5 3" stroke="rgba(232, 169, 169, 1)" fill="none" stroke-width="1.12"></path></pattern><clipPath id="SvgjsClipPath4910"><circle r="72" cx="524.34" cy="282.78"></circle></clipPath><pattern x="0" y="0" width="6.56" height="6.56" patternUnits="userSpaceOnUse" id="SvgjsPattern4913"><path d="M3.28 1L3.28 5.56M1 3.28L5.56 3.28" stroke="rgba(232, 169, 169, 1)" fill="none" stroke-width="2.11"></path></pattern><clipPath id="SvgjsClipPath4912"><circle r="75.44" cx="343.55" cy="97.29"></circle></clipPath><pattern x="0" y="0" width="307" height="6.14" patternUnits="userSpaceOnUse" id="SvgjsPattern4915"><rect width="307" height="3.07" x="0" y="0" fill="rgba(232, 169, 169, 1)"></rect><rect width="307" height="3.07" x="0" y="3.07" fill="rgba(0, 0, 0, 0)"></rect></pattern><clipPath id="SvgjsClipPath4914"><circle r="76.75" cx="1343.85" cy="24.06"></circle></clipPath></defs></svg>