<svg xmlns="http://www.w3.org/2000/svg" version="1.1" xmlns:xlink="http://www.w3.org/1999/xlink" xmlns:svgjs="http://svgjs.dev/svgjs" width="1440" height="560" preserveAspectRatio="none" viewBox="0 0 1440 560"><g mask="url(&quot;#SvgjsMask2576&quot;)" fill="none"><path d="M1399.46 495.09 L1527.6699999999998 553.13L1548.6898422244892 438.9851577755109z" stroke="rgba(232, 169, 169, 1)" stroke-width="1.92" stroke-dasharray="3, 3"></path><rect width="76" height="76" clip-path="url(&quot;#SvgjsClipPath2577&quot;)" x="222.96" y="223.46" fill="url(&quot;#SvgjsPattern2578&quot;)" transform="rotate(21.28, 260.96, 261.46)"></rect><rect width="179.76" height="179.76" clip-path="url(&quot;#SvgjsClipPath2579&quot;)" x="48.15" y="51.11" fill="url(&quot;#SvgjsPattern2580&quot;)" transform="rotate(120.6, 138.03, 140.99)"></rect><circle r="46.666666666666664" cx="1345.54" cy="482" fill="rgba(232, 169, 169, 1)"></circle><rect width="216" height="216" clip-path="url(&quot;#SvgjsClipPath2581&quot;)" x="490.85" y="133.85" fill="url(&quot;#SvgjsPattern2582&quot;)" transform="rotate(316.35, 598.85, 241.85)"></rect><circle r="88.54222936117372" cx="607.88" cy="296.68" stroke="rgba(232, 169, 169, 1)" stroke-width="1.58" stroke-dasharray="3, 3"></circle><path d="M249.73 489.94a5.6 5.6 0 1 0 9.53-5.89 5.6 5.6 0 1 0-9.53 5.89zM263.34 481.52a5.6 5.6 0 1 0 9.53-5.89 5.6 5.6 0 1 0-9.53 5.89zM276.95 473.11a5.6 5.6 0 1 0 9.52-5.89 5.6 5.6 0 1 0-9.52 5.89zM290.56 464.69a5.6 5.6 0 1 0 9.52-5.89 5.6 5.6 0 1 0-9.52 5.89z" stroke="rgba(232, 169, 169, 1)" stroke-width="1.38" stroke-dasharray="3, 2"></path><path d="M1131.3899999999999 133.15 L1113.37 239.88L1051.248948365223 115.3839483652231z" stroke="rgba(232, 169, 169, 1)" stroke-width="2.31" stroke-dasharray="4, 4"></path><circle r="55.3282684651529" cx="350.57" cy="389.4" stroke="rgba(232, 169, 169, 1)" stroke-width="2.17" stroke-dasharray="3, 3"></circle><path d="M767.45 431.77a5.6 5.6 0 1 0-10.25 4.51 5.6 5.6 0 1 0 10.25-4.51zM752.8 438.21a5.6 5.6 0 1 0-10.25 4.51 5.6 5.6 0 1 0 10.25-4.51zM738.16 444.65a5.6 5.6 0 1 0-10.26 4.51 5.6 5.6 0 1 0 10.26-4.51zM723.51 451.09a5.6 5.6 0 1 0-10.25 4.51 5.6 5.6 0 1 0 10.25-4.51zM790.3 404.24a5.6 5.6 0 1 0-10.25 4.51 5.6 5.6 0 1 0 10.25-4.51zM775.65 410.68a5.6 5.6 0 1 0-10.25 4.51 5.6 5.6 0 1 0 10.25-4.51zM761.01 417.12a5.6 5.6 0 1 0-10.26 4.51 5.6 5.6 0 1 0 10.26-4.51zM746.36 423.56a5.6 5.6 0 1 0-10.25 4.51 5.6 5.6 0 1 0 10.25-4.51z" stroke="rgba(232, 169, 169, 1)" stroke-width="2.63" stroke-dasharray="2, 2"></path><path d="M172.76 455.2L178.77 466.51 169.05 474.85 175.05 486.17 165.33 494.5 171.33 505.82 161.61 514.16M164.9 453.71L170.91 465.03 161.19 473.37 167.19 484.68 157.47 493.02 163.47 504.33 153.75 512.67" stroke="rgba(232, 169, 169, 1)" stroke-width="2.57" stroke-dasharray="2, 2"></path><rect width="60" height="60" clip-path="url(&quot;#SvgjsClipPath2583&quot;)" x="-24.69" y="120.46" fill="url(&quot;#SvgjsPattern2584&quot;)" transform="rotate(197.18, 5.31, 150.46)"></rect></g><defs><mask id="SvgjsMask2576"><rect width="1440" height="560" fill="#ffffff"></rect></mask><pattern x="0" y="0" width="76" height="7.6" patternUnits="userSpaceOnUse" id="SvgjsPattern2578"><rect width="76" height="3.8" x="0" y="0" fill="rgba(232, 169, 169, 1)"></rect><rect width="76" height="3.8" x="0" y="3.8" fill="rgba(0, 0, 0, 0)"></rect></pattern><clipPath id="SvgjsClipPath2577"><circle r="19" cx="260.96" cy="261.46"></circle></clipPath><pattern x="0" y="0" width="12.84" height="12.84" patternUnits="userSpaceOnUse" id="SvgjsPattern2580"><path d="M0 12.84L6.42 0L12.84 12.84" stroke="rgba(232, 169, 169, 1)" fill="none"></path></pattern><clipPath id="SvgjsClipPath2579"><circle r="44.94" cx="138.03" cy="140.99"></circle></clipPath><pattern x="0" y="0" width="216" height="6" patternUnits="userSpaceOnUse" id="SvgjsPattern2582"><rect width="216" height="3" x="0" y="0" fill="rgba(232, 169, 169, 1)"></rect><rect width="216" height="3" x="0" y="3" fill="rgba(0, 0, 0, 0)"></rect></pattern><clipPath id="SvgjsClipPath2581"><circle r="54" cx="598.85" cy="241.85"></circle></clipPath><pattern x="0" y="0" width="60" height="6" patternUnits="userSpaceOnUse" id="SvgjsPattern2584"><rect width="60" height="3" x="0" y="0" fill="rgba(232, 169, 169, 1)"></rect><rect width="60" height="3" x="0" y="3" fill="rgba(0, 0, 0, 0)"></rect></pattern><clipPath id="SvgjsClipPath2583"><circle r="15" cx="5.31" cy="150.46"></circle></clipPath></defs></svg>