<svg xmlns="http://www.w3.org/2000/svg" version="1.1" xmlns:xlink="http://www.w3.org/1999/xlink" xmlns:svgjs="http://svgjs.dev/svgjs" width="1000" height="330" viewBox="0 0 1000 330"><g transform="matrix(1,0,0,1,-0.6060604634566289,-0.5565710134499682)"><svg viewBox="0 0 396 131" data-background-color="#eb0e0e" preserveAspectRatio="xMidYMid meet" height="330" width="1000" xmlns="http://www.w3.org/2000/svg" xmlns:xlink="http://www.w3.org/1999/xlink"><g id="tight-bounds" transform="matrix(1,0,0,1,0.24000005647121725,0.22094182655135342)"><svg viewBox="0 0 395.52 130.5581132459891" height="130.5581132459891" width="395.52"><g><svg viewBox="0 0 599.9728327618716 198.0464225430858" height="130.5581132459891" width="395.52"><g transform="matrix(1,0,0,1,202.4752327618717,32.692178596892205)"><svg viewBox="0 0 397.49759999999986 132.6620653493014" height="132.6620653493014" width="397.49759999999986"><g id="textblocktransform"><svg viewBox="0 0 397.49759999999986 132.6620653493014" height="132.6620653493014" width="397.49759999999986" id="textblock"><g><rect width="397.49759999999986" height="6.965806351835024" x="0" y="85.44827050745144" fill="#ffffff" opacity="1" stroke-width="0" stroke="transparent" fill-opacity="1" class="rect-o-0" data-fill-palette-color="primary" rx="1%" id="o-0" data-palette-color="#ffffff"></rect></g><g transform="matrix(1,0,0,1,0.9887999999999693,0)"><svg viewBox="0 0 395.5199999999999 77.24247768460914" height="77.24247768460914" width="395.5199999999999"><g transform="matrix(1,0,0,1,0,0)"><svg width="395.5199999999999" viewBox="2.0999999046325684 -35.5 184.83999633789062 36.099998474121094" height="77.24247768460914" data-palette-color="#ffffff"><path d="M14.2 0.6L14.2 0.6Q9.9 0.6 7.03-1.03 4.15-2.65 2.1-5.35L2.1-5.35 4.35-7.2Q6.2-4.75 8.53-3.4 10.85-2.05 14.3-2.05L14.3-2.05Q18.35-2.05 20.53-3.98 22.7-5.9 22.7-9.35L22.7-9.35Q22.7-12.55 20.85-14.05 19-15.55 15.65-16.25L15.65-16.25 12.55-16.9Q7.55-17.9 5.3-20.25 3.05-22.6 3.05-26.25L3.05-26.25Q3.05-28.55 3.85-30.28 4.65-32 6.13-33.15 7.6-34.3 9.68-34.9 11.75-35.5 14.25-35.5L14.25-35.5Q18.15-35.5 20.85-34.1 23.55-32.7 25.3-30.15L25.3-30.15 23.05-28.5Q21.6-30.6 19.43-31.73 17.25-32.85 14.1-32.85L14.1-32.85Q10.35-32.85 8.18-31.23 6-29.6 6-26.35L6-26.35Q6-23.25 7.95-21.8 9.9-20.35 13.15-19.7L13.15-19.7 16.25-19.05Q21.45-17.9 23.55-15.5 25.65-13.1 25.65-9.5L25.65-9.5Q25.65-4.7 22.6-2.05 19.55 0.6 14.2 0.6ZM55.5 0L55.5-16.4 36.35-16.4 36.35 0 33.35 0 33.35-34.9 36.35-34.9 36.35-19.05 55.5-19.05 55.5-34.9 58.5-34.9 58.5 0 55.5 0ZM80.9 0.6L80.9 0.6Q74.2 0.6 70.4-3.98 66.6-8.55 66.6-17.45L66.6-17.45Q66.6-26.35 70.4-30.93 74.2-35.5 80.9-35.5L80.9-35.5Q87.55-35.5 91.35-30.9 95.15-26.3 95.15-17.45L95.15-17.45Q95.15-8.6 91.35-4 87.55 0.6 80.9 0.6ZM80.9-2.1L80.9-2.1Q83.4-2.1 85.42-2.98 87.45-3.85 88.9-5.55 90.35-7.25 91.15-9.7 91.95-12.15 91.95-15.25L91.95-15.25 91.95-19.65Q91.95-22.75 91.15-25.2 90.35-27.65 88.9-29.33 87.45-31 85.42-31.9 83.4-32.8 80.9-32.8L80.9-32.8Q78.4-32.8 76.35-31.9 74.3-31 72.85-29.33 71.4-27.65 70.6-25.2 69.8-22.75 69.8-19.65L69.8-19.65 69.8-15.25Q69.8-12.15 70.6-9.7 71.4-7.25 72.85-5.55 74.3-3.85 76.35-2.98 78.4-2.1 80.9-2.1ZM106.24 0L103.24 0 103.24-34.9 116.94-34.9Q121.49-34.9 123.89-32.27 126.29-29.65 126.29-25.15L126.29-25.15Q126.29-20.6 123.89-17.98 121.49-15.35 116.94-15.35L116.94-15.35 106.24-15.35 106.24 0ZM106.24-32.25L106.24-18 116.94-18Q119.94-18 121.52-19.68 123.09-21.35 123.09-23.95L123.09-23.95 123.09-26.35Q123.09-28.9 121.52-30.58 119.94-32.25 116.94-32.25L116.94-32.25 106.24-32.25ZM136.29 0L133.29 0 133.29-34.9 146.99-34.9Q151.54-34.9 153.94-32.27 156.34-29.65 156.34-25.15L156.34-25.15Q156.34-20.6 153.94-17.98 151.54-15.35 146.99-15.35L146.99-15.35 136.29-15.35 136.29 0ZM136.29-32.25L136.29-18 146.99-18Q149.99-18 151.57-19.68 153.14-21.35 153.14-23.95L153.14-23.95 153.14-26.35Q153.14-28.9 151.57-30.58 149.99-32.25 146.99-32.25L146.99-32.25 136.29-32.25ZM174.84 0L171.84 0 171.84-14.15 159.79-34.9 163.19-34.9 173.29-17.3 173.44-17.3 183.54-34.9 186.94-34.9 174.84-14.3 174.84 0Z" opacity="1" transform="matrix(1,0,0,1,0,0)" fill="#ffffff" class="wordmark-text-0" data-fill-palette-color="primary" id="text-0"></path></svg></g></svg></g><g transform="matrix(1,0,0,1,0,100.61986968212878)"><svg viewBox="0 0 232.20979199999994 32.042195667172614" height="32.042195667172614" width="232.20979199999994"><g transform="matrix(1,0,0,1,0,0)"><svg width="232.20979199999994" viewBox="0.5 -37.5 362.32000732421875 50" height="32.042195667172614" data-palette-color="#ffffff"><path d="M0.5-36.6L0.5-37.5 12.55-37.5 12.55-19.2Q13.35-21.5 15-22.9 16.65-24.3 20-24.3L20-24.3Q27.75-24.3 27.75-15.95L27.75-15.95 27.75-0.9 30.55-0.9 30.55 0 16.4 0 16.4-0.9 18.45-0.9 18.45-17.15Q18.45-20.15 18.05-21.03 17.65-21.9 16.6-21.9L16.6-21.9Q15-21.9 13.78-19.8 12.55-17.7 12.55-14.7L12.55-14.7 12.55-0.9 14.7-0.9 14.7 0 0.5 0 0.5-0.9 3.25-0.9 3.25-36.6 0.5-36.6ZM43.3-11.75L43.3-11.75 44.75-11.75 44.75-15.6Q44.75-20.35 44.22-21.98 43.7-23.6 42.2-23.6L42.2-23.6Q41.3-23.6 40.57-23.13 39.85-22.65 39.85-21.83 39.85-21 40.15-20.15L40.15-20.15 41.4-20.15Q41.8-19.1 41.8-17.63 41.8-16.15 40.55-15.08 39.3-14 37.4-14L37.4-14Q33.1-14 33.1-18.15L33.1-18.15Q33.1-24.3 43.55-24.3L43.55-24.3Q49.5-24.3 51.77-22.28 54.05-20.25 54.05-14.85L54.05-14.85 54.05-4.7Q54.05-2.1 55.5-2.1L55.5-2.1Q57.2-2.1 57.5-7.25L57.5-7.25 58.25-7.2Q58.05-2.8 56.6-1.15 55.15 0.5 51.85 0.5L51.85 0.5Q45.85 0.5 44.95-3.2L44.95-3.2Q44.3-1.3 43-0.4 41.7 0.5 39.2 0.5L39.2 0.5Q31.8 0.5 31.8-5.55L31.8-5.55Q31.8-9.1 34.62-10.43 37.45-11.75 43.3-11.75ZM41.3-5.6Q41.3-3 41.57-2.25 41.85-1.5 42.62-1.5 43.4-1.5 44.07-2.78 44.75-4.05 44.75-6.3L44.75-6.3 44.75-10.95 44.4-10.95Q41.3-10.95 41.3-6.4L41.3-6.4 41.3-5.6ZM76.5-13.45Q76.5-18.6 76-20.38 75.5-22.15 74.05-22.15 72.59-22.15 71.45-20.28 70.3-18.4 70.3-15.25L70.3-15.25 70.3-6.1Q70.3-3.95 71.15-2.45 72-0.95 73.65-0.95 75.3-0.95 75.9-3.15 76.5-5.35 76.5-10.85L76.5-10.85 76.5-13.45ZM58.35-23.8L70.2-23.8 70.2-19.85Q72.15-24.3 77.09-24.3L77.09-24.3Q81.4-24.3 83.77-21.2 86.15-18.1 86.15-11.8 86.15-5.5 83.57-2.5 81 0.5 75.84 0.5L75.84 0.5Q73.45 0.5 72.25-0.1 71.05-0.7 70.3-1.95L70.3-1.95 70.3 11 76.75 11 76.75 11.9 58.25 11.9 58.25 11 61 11 61-22.9 58.35-22.9 58.35-23.8ZM105.89-13.45Q105.89-18.6 105.39-20.38 104.89-22.15 103.44-22.15 101.99-22.15 100.84-20.28 99.69-18.4 99.69-15.25L99.69-15.25 99.69-6.1Q99.69-3.95 100.54-2.45 101.39-0.95 103.04-0.95 104.69-0.95 105.29-3.15 105.89-5.35 105.89-10.85L105.89-10.85 105.89-13.45ZM87.74-23.8L99.59-23.8 99.59-19.85Q101.54-24.3 106.49-24.3L106.49-24.3Q110.79-24.3 113.17-21.2 115.54-18.1 115.54-11.8 115.54-5.5 112.97-2.5 110.39 0.5 105.24 0.5L105.24 0.5Q102.84 0.5 101.64-0.1 100.44-0.7 99.69-1.95L99.69-1.95 99.69 11 106.14 11 106.14 11.9 87.64 11.9 87.64 11 90.39 11 90.39-22.9 87.74-22.9 87.74-23.8ZM117.84-22.9L115.79-22.9 115.79-23.8 130.29-23.8 130.29-22.9 127.59-22.9 133.04-6.3 138.84-22.9 135.49-22.9 135.49-23.8 142.54-23.8 142.54-22.9 140.04-22.9 130.69 4.05Q129.04 8.75 126.99 10.63 124.94 12.5 121.99 12.5 119.04 12.5 117.34 11.15 115.64 9.8 115.64 7.7 115.64 5.6 116.74 4.5 117.84 3.4 119.64 3.4L119.64 3.4Q123.79 3.4 123.79 6.85L123.79 6.85Q123.79 7.6 123.49 8.65L123.49 8.65 121.74 8.65Q121.34 9.8 121.64 10.55 121.94 11.3 122.99 11.3L122.99 11.3Q125.04 11.3 126.64 9.28 128.24 7.25 129.69 3.1L129.69 3.1 130.79 0 126.39 0 117.84-22.9ZM153.39 0.5L152.79 0.5 152.79-8.45 153.39-8.45Q154.69-4.1 156.89-2.35 159.09-0.6 162.39-0.6L162.39-0.6Q167.49-0.6 167.49-3.85L167.49-3.85Q167.49-5.25 166.24-5.95L166.24-5.95Q164.29-7.05 161.24-7.65L161.24-7.65Q157.84-8.55 155.54-10.05L155.54-10.05Q152.79-11.85 152.79-15.75 152.79-19.65 155.19-21.98 157.59-24.3 161.59-24.3L161.59-24.3Q164.04-24.3 166.64-23.15L166.64-23.15Q167.59-22.75 168.09-22.75 168.59-22.75 168.94-23.1 169.29-23.45 169.79-24.4L169.79-24.4 170.34-24.4 170.34-16.75 169.74-16.75Q167.19-23.25 161.84-23.25L161.84-23.25Q159.49-23.25 158.34-22.43 157.19-21.6 157.19-20.35L157.19-20.35Q157.19-19.6 157.54-19.18 157.89-18.75 158.09-18.55 158.29-18.35 158.74-18.13 159.19-17.9 159.49-17.78 159.79-17.65 160.41-17.45 161.04-17.25 161.34-17.2L161.34-17.2Q164.74-16.35 166.24-15.73 167.74-15.1 169.09-14.2L169.09-14.2Q171.84-12.3 171.84-8.08 171.84-3.85 169.34-1.68 166.84 0.5 162.49 0.5L162.49 0.5Q159.39 0.5 156.49-0.95L156.49-0.95Q155.89-1.35 155.54-1.35L155.54-1.35Q154.44-1.35 153.39 0.5L153.39 0.5ZM173.33-36.6L173.33-37.5 185.38-37.5 185.38-19.2Q186.18-21.5 187.83-22.9 189.48-24.3 192.83-24.3L192.83-24.3Q200.58-24.3 200.58-15.95L200.58-15.95 200.58-0.9 203.38-0.9 203.38 0 189.23 0 189.23-0.9 191.28-0.9 191.28-17.15Q191.28-20.15 190.88-21.03 190.48-21.9 189.43-21.9L189.43-21.9Q187.83-21.9 186.61-19.8 185.38-17.7 185.38-14.7L185.38-14.7 185.38-0.9 187.53-0.9 187.53 0 173.33 0 173.33-0.9 176.08-0.9 176.08-36.6 173.33-36.6ZM220.28-9.85L220.28-9.85 220.28-14.1Q220.28-18.95 219.76-21.18 219.23-23.4 217.33-23.4L217.33-23.4Q216.23-23.4 215.56-22.78 214.88-22.15 214.58-20.7L214.58-20.7Q214.13-18.45 214.13-13.85L214.13-13.85 214.13-9.95Q214.13-4.5 214.46-3.4 214.78-2.3 215.13-1.6L215.13-1.6Q215.68-0.4 217.28-0.4L217.28-0.4Q219.23-0.4 219.83-2.65L219.83-2.65Q220.28-4.25 220.28-9.85ZM217.18 0.5Q210.93 0.5 207.73-2.7 204.53-5.9 204.53-11.88 204.53-17.85 207.96-21.08 211.38-24.3 217.58-24.3 223.78-24.3 226.83-21.33 229.88-18.35 229.88-12.25L229.88-12.25Q229.88 0.5 217.18 0.5L217.18 0.5ZM249.53-13.45Q249.53-18.6 249.03-20.38 248.53-22.15 247.08-22.15 245.63-22.15 244.48-20.28 243.33-18.4 243.33-15.25L243.33-15.25 243.33-6.1Q243.33-3.95 244.18-2.45 245.03-0.95 246.68-0.95 248.33-0.95 248.93-3.15 249.53-5.35 249.53-10.85L249.53-10.85 249.53-13.45ZM231.38-23.8L243.23-23.8 243.23-19.85Q245.18-24.3 250.13-24.3L250.13-24.3Q254.43-24.3 256.8-21.2 259.18-18.1 259.18-11.8 259.18-5.5 256.6-2.5 254.03 0.5 248.88 0.5L248.88 0.5Q246.48 0.5 245.28-0.1 244.08-0.7 243.33-1.95L243.33-1.95 243.33 11 249.78 11 249.78 11.9 231.28 11.9 231.28 11 234.03 11 234.03-22.9 231.38-22.9 231.38-23.8ZM278.93-13.45Q278.93-18.6 278.43-20.38 277.93-22.15 276.48-22.15 275.03-22.15 273.88-20.28 272.73-18.4 272.73-15.25L272.73-15.25 272.73-6.1Q272.73-3.95 273.58-2.45 274.43-0.95 276.08-0.95 277.73-0.95 278.33-3.15 278.93-5.35 278.93-10.85L278.93-10.85 278.93-13.45ZM260.78-23.8L272.63-23.8 272.63-19.85Q274.58-24.3 279.53-24.3L279.53-24.3Q283.83-24.3 286.2-21.2 288.58-18.1 288.58-11.8 288.58-5.5 286-2.5 283.43 0.5 278.28 0.5L278.28 0.5Q275.88 0.5 274.68-0.1 273.48-0.7 272.73-1.95L272.73-1.95 272.73 11 279.18 11 279.18 11.9 260.68 11.9 260.68 11 263.43 11 263.43-22.9 260.78-22.9 260.78-23.8ZM297.42-27.25Q294.77-27.25 293.65-28.6 292.52-29.95 292.52-31.95 292.52-33.95 293.75-35.25 294.97-36.55 297.47-36.55 299.97-36.55 301.27-35.38 302.57-34.2 302.57-32.02 302.57-29.85 301.32-28.55 300.07-27.25 297.42-27.25ZM289.87-22.9L289.87-23.8 302.12-23.8 302.12-0.9 304.92-0.9 304.92 0 290.07 0 290.07-0.9 292.82-0.9 292.82-22.9 289.87-22.9ZM306.02-22.9L306.02-23.8 318.07-23.8 318.07-19.2Q318.87-21.5 320.52-22.9 322.17-24.3 325.52-24.3L325.52-24.3Q333.27-24.3 333.27-15.95L333.27-15.95 333.27-0.9 336.07-0.9 336.07 0 321.92 0 321.92-0.9 323.97-0.9 323.97-17.15Q323.97-20.15 323.57-21.03 323.17-21.9 322.12-21.9L322.12-21.9Q320.52-21.9 319.3-19.8 318.07-17.7 318.07-14.7L318.07-14.7 318.07-0.9 320.22-0.9 320.22 0 306.02 0 306.02-0.9 308.77-0.9 308.77-22.9 306.02-22.9ZM356.77-26.4L356.77-26.4 358.17-27.25Q358.47-28.8 356.97-28.8L356.97-28.8Q354.82-28.8 354.82-25.5L354.82-25.5Q354.82-24.2 355.17-22.5L355.17-22.5Q358.97-19.95 358.97-15.98 358.97-12 356.22-9.8 353.47-7.6 348.77-7.6L348.77-7.6Q346.82-7.6 344.72-8L344.72-8Q342.52-6.6 342.52-5.9 342.52-5.2 345.72-5.2L345.72-5.2 350.82-5.2Q362.17-5.2 362.17 2.95L362.17 2.95Q362.17 7.35 358.74 9.93 355.32 12.5 348.07 12.5L348.07 12.5Q335.72 12.5 335.72 7.15L335.72 7.15Q335.72 4.25 339.57 3.15L339.57 3.15 342.57 4.5Q342.17 5.95 342.17 7.25L342.17 7.25Q342.17 11.55 348.57 11.55L348.57 11.55Q352.47 11.55 354.57 10.1 356.67 8.65 356.67 6.5 356.67 4.35 355.39 3.63 354.12 2.9 350.32 2.9L350.32 2.9 345.47 2.9Q341.42 2.9 339.67 1.55 337.92 0.2 337.92-1.78 337.92-3.75 339.17-5.08 340.42-6.4 343.62-8.35L343.62-8.35Q337.82-10 337.82-15.95L337.82-15.95Q337.82-19.7 340.52-22 343.22-24.3 348.62-24.3L348.62-24.3Q351.87-24.3 354.17-23.05L354.17-23.05Q353.87-24.4 353.87-25.5L353.87-25.5Q353.87-28.3 355.37-29.55 356.87-30.8 358.72-30.8 360.57-30.8 361.69-29.83 362.82-28.85 362.82-27.15 362.82-25.45 361.92-24.63 361.02-23.8 359.74-23.8 358.47-23.8 357.64-24.48 356.82-25.15 356.77-26.4ZM346.17-17.05L346.17-17.05 346.17-14.35Q346.17-11 346.74-9.8 347.32-8.6 348.49-8.6 349.67-8.6 350.19-9.78 350.72-10.95 350.72-14.6L350.72-14.6 350.72-17.05Q350.72-20.95 350.22-22.18 349.72-23.4 348.54-23.4 347.37-23.4 346.77-22.13 346.17-20.85 346.17-17.05Z" opacity="1" transform="matrix(1,0,0,1,0,0)" fill="#ffffff" class="slogan-text-1" data-fill-palette-color="secondary" id="text-1"></path></svg></g></svg></g></svg></g></svg></g><g><svg viewBox="0 0 184.2401375999999 198.0464225430858" height="198.0464225430858" width="184.2401375999999"><g><svg xmlns="http://www.w3.org/2000/svg" xmlns:xlink="http://www.w3.org/1999/xlink" version="1.1" x="0" y="0" viewBox="8.911556243896484 4.988999366760254 82.17788696289062 88.33599853515625" enable-background="new 0 0 100 100" xml:space="preserve" height="198.0464225430858" width="184.2401375999999" class="icon-icon-0" data-fill-palette-color="accent" id="icon-0"><path d="M90.83 52.403c-0.038-0.056-3.838-5.639-8.306-11.146C74.09 30.86 70.626 29.658 68.754 29.658h-6.1c-0.05 0-0.098 0.01-0.146 0.015l-10.197-6.325v-3.296c3.369-0.794 5.887-3.818 5.887-7.426 0-4.211-3.426-7.637-7.637-7.637s-7.637 3.426-7.637 7.637c0 0.966 0.784 1.75 1.75 1.75s1.75-0.784 1.75-1.75c0-2.281 1.856-4.137 4.137-4.137 2.281 0 4.137 1.856 4.137 4.137s-1.855 4.137-4.137 4.137c-0.966 0-1.75 0.784-1.75 1.75v4.838l-10.171 6.308h-4.731H31.42c-5.827 0-18.493 17.395-22.236 22.726-0.452 0.645-0.33 1.528 0.28 2.025l14.08 11.478c0.278 0.228 0.614 0.338 0.947 0.338 0.436 0 0.867-0.188 1.164-0.552l1.434-1.759v27.91c0 0.828 0.671 1.5 1.5 1.5h43.167c0.828 0 1.5-0.672 1.5-1.5V64.332l1.094 1.341c0.296 0.363 0.728 0.552 1.163 0.552 0.333 0 0.668-0.11 0.947-0.338l14.079-11.479C91.14 53.917 91.267 53.047 90.83 52.403zM50.562 26.382l10.498 6.511c-0.54 3.474-3.567 6.145-7.223 6.145h-5.834c-3.787 0-6.906-2.891-7.251-6.571L50.562 26.382z" fill="#ffffff" data-fill-palette-color="accent"></path></svg></g></svg></g></svg></g><defs></defs></svg><rect width="395.52" height="130.5581132459891" fill="none" stroke="none" visibility="hidden"></rect></g></svg></g></svg>