<svg xmlns="http://www.w3.org/2000/svg" version="1.1" xmlns:xlink="http://www.w3.org/1999/xlink" xmlns:svgjs="http://svgjs.dev/svgjs" width="1000" height="410" viewBox="0 0 1000 410"><g transform="matrix(1,0,0,1,0.1066666666666265,0.43467732218954325)"><svg viewBox="0 0 375 154" data-background-color="#fa9844" preserveAspectRatio="xMidYMid meet" height="410" width="1000" xmlns="http://www.w3.org/2000/svg" xmlns:xlink="http://www.w3.org/1999/xlink"><g id="tight-bounds" transform="matrix(1,0,0,1,-0.03976036071776434,-0.16326904296875)"><svg viewBox="0 0 375.07952880859375 154.3265380859375" height="154.3265380859375" width="375.07952880859375"><g><svg></svg></g><g><svg viewBox="0 0 375.07952880859375 154.3265380859375" height="154.3265380859375" width="375.07952880859375"><g transform="matrix(1,0,0,1,-10.220239639282227,-51.03654479980469)"><path xmlns="http://www.w3.org/2000/svg" d="M10.22 196.163v-145.126h375.08v145.126h-172.125l0-3.556h168.568v-138.014h-367.966v138.014h22.182l0 3.556z" fill="#ffffff" fill-rule="nonzero" stroke="none" stroke-width="1" stroke-linecap="butt" stroke-linejoin="miter" stroke-miterlimit="10" stroke-dasharray="" stroke-dashoffset="0" font-family="none" font-weight="none" font-size="none" text-anchor="none" style="mix-blend-mode: normal" data-fill-palette-color="tertiary"></path><g><path xmlns="http://www.w3.org/2000/svg" d="M56.145 197.369c0 1.116 0.125 2.019 0.374 2.709v0c-0.426 0.396-0.918 0.595-1.475 0.594v0c-0.44 0-0.8-0.125-1.079-0.374-0.279-0.25-0.418-0.587-0.419-1.013v0-5.682c0-1.219-0.132-2.126-0.396-2.722-0.264-0.593-0.734-0.89-1.409-0.889v0c-0.734 0-1.343 0.436-1.828 1.308-0.484 0.875-0.727 2.157-0.727 3.845v0c0 1.674 0.022 2.789 0.066 3.347 0.044 0.558 0.169 1.094 0.374 1.608v0c-0.47 0.382-0.962 0.573-1.475 0.572v0c-0.44 0-0.803-0.137-1.088-0.409-0.288-0.27-0.432-0.633-0.432-1.088v0-13.566c-0.015-0.411 0.092-0.731 0.322-0.96 0.226-0.226 0.53-0.354 0.912-0.383v0c0.352-0.044 0.687 0 1.004 0.132 0.314 0.132 0.567 0.272 0.757 0.418v0c-0.176 0.573-0.294 1.221-0.352 1.947-0.059 0.728-0.095 1.665-0.11 2.81v0 1.498c0.308-0.749 0.753-1.326 1.334-1.731 0.578-0.402 1.279-0.603 2.101-0.604v0c1.204 0 2.097 0.374 2.678 1.123 0.578 0.749 0.868 1.865 0.868 3.348v0zM69.512 198.294c0.191 0.279 0.286 0.565 0.287 0.859v0c0 0.411-0.176 0.752-0.529 1.022-0.352 0.273-0.815 0.41-1.387 0.409v0c-0.705 0-1.248-0.239-1.63-0.718-0.382-0.476-0.595-1.249-0.639-2.321v0c-0.426 0.925-1.013 1.662-1.761 2.211-0.749 0.552-1.615 0.828-2.599 0.828v0c-0.852 0-1.537-0.228-2.057-0.682-0.523-0.455-0.784-1.086-0.784-1.894v0c0-0.94 0.357-1.71 1.071-2.313 0.711-0.602 1.616-1.057 2.717-1.365v0c0.984-0.279 2.07-0.418 3.259-0.418v0-0.573c0-1.248-0.164-2.173-0.493-2.775-0.332-0.602-0.879-0.903-1.643-0.903v0c-0.514 0-0.932 0.135-1.255 0.405-0.323 0.273-0.484 0.703-0.485 1.291v0c0 0.338 0.063 0.653 0.19 0.947 0.123 0.294 0.332 0.514 0.625 0.661v0c-0.147 0.162-0.348 0.282-0.603 0.361-0.258 0.082-0.534 0.123-0.828 0.123v0c-0.617 0-1.111-0.191-1.484-0.573-0.376-0.382-0.564-0.859-0.564-1.431v0c0-0.866 0.408-1.534 1.224-2.004 0.813-0.47 1.925-0.705 3.334-0.705v0c1.615 0 2.797 0.377 3.546 1.132 0.749 0.758 1.123 1.973 1.123 3.647v0 3.942c0 0.778 0.25 1.167 0.749 1.167v0c0.103 0 0.213-0.026 0.33-0.079 0.117-0.05 0.213-0.134 0.286-0.251zM62.443 198.867c0.455 0 0.925-0.184 1.41-0.551 0.484-0.367 0.888-0.863 1.211-1.489 0.323-0.622 0.484-1.301 0.484-2.035v0c-1.175-0.029-2.107 0.125-2.796 0.463v0c-0.455 0.22-0.815 0.514-1.079 0.881-0.264 0.367-0.396 0.785-0.397 1.255v0c0 0.426 0.095 0.778 0.286 1.057 0.191 0.279 0.484 0.418 0.881 0.419zM77.947 188.736c1.38 0 2.374 0.521 2.982 1.564 0.611 1.042 0.916 2.364 0.916 3.964v0c0 2.055-0.418 3.637-1.255 4.743-0.837 1.11-1.997 1.665-3.48 1.665v0c-0.675 0-1.248-0.122-1.718-0.365-0.47-0.241-0.815-0.596-1.035-1.066v0 1.453c0 1.615 0.147 2.914 0.441 3.898v0c-0.162 0.147-0.37 0.279-0.626 0.397-0.258 0.117-0.556 0.176-0.894 0.176v0c-0.426 0-0.781-0.12-1.066-0.361-0.288-0.244-0.432-0.571-0.431-0.982v0l0.022-11.892c0-0.396-0.047-0.683-0.141-0.859-0.097-0.176-0.248-0.264-0.454-0.265v0c-0.279 0-0.47 0.088-0.572 0.265v0c-0.176-0.294-0.264-0.58-0.265-0.859v0c0-0.411 0.154-0.741 0.463-0.991 0.308-0.25 0.705-0.374 1.189-0.375v0c1.292 0 2.019 0.954 2.18 2.863v0c0.675-1.982 1.923-2.973 3.744-2.973zM76.471 199.285c1.732 0 2.599-1.681 2.599-5.043v0c0-1.307-0.135-2.312-0.405-3.017-0.273-0.705-0.769-1.057-1.489-1.057v0c-0.881 0-1.564 0.558-2.048 1.673-0.484 1.116-0.727 2.43-0.727 3.942v0c0 1.16 0.154 2.033 0.463 2.621 0.308 0.587 0.844 0.881 1.607 0.881zM90.676 188.736c1.38 0 2.375 0.521 2.986 1.564 0.608 1.042 0.912 2.364 0.912 3.964v0c0 2.055-0.418 3.637-1.256 4.743-0.837 1.11-1.997 1.665-3.479 1.665v0c-0.675 0-1.248-0.122-1.718-0.365-0.47-0.241-0.815-0.596-1.035-1.066v0 1.453c0 1.615 0.147 2.914 0.44 3.898v0c-0.162 0.147-0.37 0.279-0.625 0.397-0.258 0.117-0.556 0.176-0.894 0.176v0c-0.426 0-0.781-0.12-1.066-0.361-0.288-0.244-0.432-0.571-0.432-0.982v0l0.022-11.892c0-0.396-0.047-0.683-0.14-0.859-0.097-0.176-0.248-0.264-0.454-0.265v0c-0.279 0-0.47 0.088-0.573 0.265v0c-0.176-0.294-0.264-0.58-0.264-0.859v0c0-0.411 0.154-0.741 0.463-0.991 0.308-0.25 0.705-0.374 1.189-0.375v0c1.292 0 2.019 0.954 2.18 2.863v0c0.675-1.982 1.923-2.973 3.744-2.973zM89.2 199.285c1.732 0 2.599-1.681 2.599-5.043v0c0-1.307-0.135-2.312-0.405-3.017-0.273-0.705-0.769-1.057-1.489-1.057v0c-0.881 0-1.564 0.558-2.048 1.673-0.484 1.116-0.727 2.43-0.727 3.942v0c0 1.16 0.154 2.033 0.463 2.621 0.308 0.587 0.844 0.881 1.607 0.881zM106.311 190.234l0.022 8.985c0 2.173-0.495 3.741-1.484 4.704-0.992 0.96-2.355 1.44-4.087 1.44v0c-1.189 0-2.166-0.179-2.929-0.537-0.763-0.361-1.145-0.96-1.145-1.797v0c0-0.455 0.169-0.83 0.506-1.123 0.338-0.294 0.778-0.44 1.322-0.441v0c0.573 0 0.969 0.147 1.189 0.441v0c-0.191 0.132-0.338 0.301-0.441 0.506-0.103 0.206-0.154 0.404-0.154 0.595v0c0 0.455 0.154 0.818 0.463 1.088 0.308 0.273 0.719 0.41 1.233 0.409v0c1.013 0 1.781-0.433 2.303-1.299 0.52-0.866 0.78-2.085 0.78-3.656v0c0-0.411 0.051-0.998 0.154-1.762v0c-0.631 1.835-1.865 2.753-3.7 2.753v0c-1.145 0-1.997-0.349-2.554-1.048-0.558-0.696-0.844-1.844-0.859-3.444v0-4.008c0-1.101-0.125-2.011-0.374-2.731v0c0.44-0.382 0.94-0.573 1.497-0.573v0c0.44 0 0.8 0.125 1.079 0.375 0.279 0.25 0.418 0.587 0.419 1.013v0 5.527c0 1.263 0.117 2.18 0.352 2.753 0.235 0.573 0.668 0.859 1.299 0.859v0c0.749 0 1.358-0.43 1.828-1.291 0.47-0.857 0.705-2.116 0.705-3.774v0c0-1.644-0.022-2.742-0.066-3.295-0.044-0.549-0.162-1.081-0.353-1.594v0c0.426-0.382 0.925-0.573 1.498-0.573v0c0.426 0 0.783 0.135 1.07 0.406 0.285 0.273 0.427 0.637 0.427 1.092zM117.256 200.672c-1.38 0-2.422-0.239-3.127-0.718-0.705-0.476-1.057-1.103-1.057-1.88v0c0-0.396 0.122-0.741 0.366-1.035 0.241-0.294 0.618-0.44 1.132-0.441v0c0.088 0 0.25 0.015 0.484 0.044v0c-0.044 0.176-0.066 0.36-0.066 0.551v0c0 0.162 0.022 0.345 0.066 0.55v0c0.073 0.543 0.327 0.998 0.762 1.366 0.432 0.367 1.022 0.551 1.771 0.55v0c0.646 0 1.172-0.122 1.577-0.365 0.402-0.241 0.603-0.603 0.603-1.088v0c0-0.484-0.179-0.874-0.537-1.167-0.361-0.294-0.931-0.624-1.709-0.991v0c-0.191-0.073-0.352-0.147-0.485-0.221v0c-0.778-0.367-1.402-0.697-1.872-0.991-0.47-0.294-0.874-0.687-1.211-1.18-0.338-0.49-0.507-1.095-0.506-1.815v0c0-1.042 0.404-1.825 1.211-2.347 0.807-0.52 1.828-0.78 3.061-0.78v0c1.219 0 2.188 0.186 2.907 0.56 0.719 0.376 1.079 0.909 1.079 1.598v0c0 0.352-0.098 0.649-0.295 0.89-0.2 0.244-0.512 0.373-0.938 0.388v0h-0.221c-0.132 0-0.301-0.015-0.506-0.044v0c0.029-0.529-0.022-0.925-0.154-1.189v0c-0.103-0.382-0.323-0.683-0.661-0.903-0.338-0.22-0.771-0.33-1.299-0.331v0c-0.514 0-0.947 0.106-1.3 0.317-0.352 0.214-0.529 0.542-0.528 0.983v0c0 0.396 0.122 0.737 0.366 1.021 0.241 0.288 0.534 0.534 0.88 0.74 0.344 0.206 0.838 0.462 1.485 0.771v0c0.822 0.396 1.468 0.73 1.938 1 0.47 0.273 0.878 0.633 1.224 1.079 0.344 0.449 0.515 0.99 0.515 1.621v0c0 0.969-0.399 1.787-1.198 2.453-0.802 0.669-2.054 1.004-3.757 1.004zM133.883 197.369c0 1.116 0.125 2.019 0.374 2.709v0c-0.426 0.396-0.918 0.595-1.475 0.594v0c-0.44 0-0.8-0.125-1.079-0.374-0.279-0.25-0.418-0.587-0.418-1.013v0-5.682c0-1.219-0.132-2.126-0.397-2.722-0.264-0.593-0.734-0.89-1.409-0.889v0c-0.734 0-1.343 0.436-1.828 1.308-0.484 0.875-0.727 2.157-0.727 3.845v0c0 1.674 0.022 2.789 0.066 3.347 0.044 0.558 0.169 1.094 0.375 1.608v0c-0.47 0.382-0.962 0.573-1.476 0.572v0c-0.44 0-0.803-0.137-1.088-0.409-0.288-0.27-0.432-0.633-0.431-1.088v0-13.566c-0.015-0.411 0.092-0.731 0.321-0.96 0.226-0.226 0.53-0.354 0.912-0.383v0c0.352-0.044 0.687 0 1.004 0.132 0.314 0.132 0.567 0.272 0.758 0.418v0c-0.176 0.573-0.294 1.221-0.353 1.947-0.059 0.728-0.095 1.665-0.11 2.81v0 1.498c0.308-0.749 0.752-1.326 1.33-1.731 0.581-0.402 1.283-0.603 2.106-0.604v0c1.204 0 2.097 0.374 2.677 1.123 0.578 0.749 0.868 1.865 0.868 3.348v0zM141.459 200.672c-1.688 0-2.998-0.526-3.929-1.576-0.934-1.048-1.401-2.512-1.401-4.392v0c0-1.879 0.467-3.344 1.401-4.395 0.931-1.048 2.24-1.572 3.929-1.573v0c1.674 0 2.977 0.524 3.911 1.573 0.931 1.051 1.396 2.516 1.396 4.395v0c0 1.879-0.465 3.343-1.396 4.392-0.934 1.051-2.237 1.577-3.911 1.576zM141.459 199.725c1.659 0 2.489-1.674 2.488-5.021v0c0-3.347-0.83-5.021-2.488-5.021v0c-1.688 0-2.533 1.674-2.533 5.021v0c0 3.347 0.844 5.021 2.533 5.021zM155.575 188.736c1.38 0 2.375 0.521 2.986 1.564 0.608 1.042 0.912 2.364 0.912 3.964v0c0 2.055-0.418 3.637-1.255 4.743-0.837 1.11-1.997 1.665-3.48 1.665v0c-0.675 0-1.248-0.122-1.718-0.365-0.47-0.241-0.815-0.596-1.035-1.066v0 1.453c0 1.615 0.147 2.914 0.441 3.898v0c-0.162 0.147-0.371 0.279-0.63 0.397-0.255 0.117-0.552 0.176-0.89 0.176v0c-0.426 0-0.781-0.12-1.066-0.361-0.288-0.244-0.432-0.571-0.431-0.982v0l0.022-11.892c0-0.396-0.047-0.683-0.141-0.859-0.097-0.176-0.248-0.264-0.454-0.265v0c-0.279 0-0.47 0.088-0.572 0.265v0c-0.176-0.294-0.264-0.58-0.265-0.859v0c0-0.411 0.154-0.741 0.463-0.991 0.308-0.25 0.705-0.374 1.189-0.375v0c1.292 0 2.019 0.954 2.18 2.863v0c0.675-1.982 1.923-2.973 3.744-2.973zM154.099 199.285c1.732 0 2.599-1.681 2.599-5.043v0c0-1.307-0.135-2.312-0.405-3.017-0.273-0.705-0.769-1.057-1.489-1.057v0c-0.881 0-1.564 0.558-2.048 1.673-0.484 1.116-0.727 2.43-0.727 3.942v0c0 1.16 0.154 2.033 0.463 2.621 0.308 0.587 0.844 0.881 1.607 0.881zM168.304 188.736c1.38 0 2.374 0.521 2.982 1.564 0.611 1.042 0.916 2.364 0.916 3.964v0c0 2.055-0.418 3.637-1.256 4.743-0.837 1.11-1.997 1.665-3.479 1.665v0c-0.675 0-1.248-0.122-1.718-0.365-0.47-0.241-0.815-0.596-1.035-1.066v0 1.453c0 1.615 0.147 2.914 0.441 3.898v0c-0.162 0.147-0.371 0.279-0.63 0.397-0.255 0.117-0.552 0.176-0.89 0.176v0c-0.426 0-0.783-0.12-1.07-0.361-0.285-0.244-0.427-0.571-0.427-0.982v0l0.022-11.892c0-0.396-0.048-0.683-0.146-0.859-0.094-0.176-0.244-0.264-0.449-0.265v0c-0.279 0-0.47 0.088-0.573 0.265v0c-0.176-0.294-0.264-0.58-0.264-0.859v0c0-0.411 0.154-0.741 0.463-0.991 0.308-0.25 0.705-0.374 1.189-0.375v0c1.292 0 2.019 0.954 2.18 2.863v0c0.675-1.982 1.923-2.973 3.744-2.973zM166.828 199.285c1.732 0 2.599-1.681 2.599-5.043v0c0-1.307-0.137-2.312-0.41-3.017-0.27-0.705-0.765-1.057-1.484-1.057v0c-0.881 0-1.564 0.558-2.048 1.673-0.484 1.116-0.727 2.43-0.727 3.942v0c0 1.16 0.154 2.033 0.463 2.621 0.308 0.587 0.844 0.881 1.607 0.881zM175.967 187.503c-0.426 0-0.79-0.147-1.092-0.44-0.299-0.294-0.449-0.653-0.449-1.079v0c0-0.44 0.15-0.807 0.449-1.102 0.302-0.294 0.667-0.44 1.092-0.44v0c0.426 0 0.788 0.147 1.088 0.44 0.302 0.294 0.454 0.661 0.454 1.102v0c0 0.426-0.151 0.785-0.454 1.079-0.299 0.294-0.662 0.44-1.088 0.44zM177.377 197.369c0 1.16 0.125 2.063 0.374 2.709v0c-0.147 0.147-0.349 0.283-0.608 0.409-0.255 0.123-0.552 0.185-0.889 0.185v0c-0.411 0-0.756-0.125-1.035-0.374-0.279-0.25-0.418-0.587-0.419-1.013v0l-0.022-7.267c0-1.086-0.125-1.989-0.374-2.709v0c0.426-0.382 0.91-0.573 1.453-0.573v0c0.44 0 0.796 0.12 1.066 0.361 0.273 0.244 0.41 0.578 0.41 1.005v0zM190.348 197.369c0.044 1.219 0.184 2.121 0.418 2.709v0c-0.455 0.396-0.962 0.595-1.519 0.594v0c-0.44 0-0.8-0.125-1.079-0.374-0.279-0.25-0.418-0.587-0.419-1.013v0-5.682c-0.015-1.204-0.151-2.092-0.409-2.664-0.255-0.573-0.721-0.859-1.397-0.859v0c-0.734 0-1.343 0.429-1.827 1.286-0.484 0.86-0.727 2.12-0.727 3.779v0c0 1.674 0.022 2.789 0.066 3.347 0.044 0.558 0.169 1.094 0.374 1.608v0c-0.162 0.147-0.371 0.279-0.629 0.396-0.255 0.117-0.537 0.176-0.846 0.176v0c-0.455 0-0.827-0.137-1.114-0.409-0.285-0.27-0.427-0.633-0.428-1.088v0-7.312c-0.015-0.411-0.066-0.705-0.154-0.88-0.088-0.176-0.235-0.264-0.44-0.265v0c-0.279 0-0.47 0.095-0.573 0.287v0c-0.176-0.294-0.264-0.587-0.264-0.881v0c0-0.411 0.142-0.741 0.427-0.991 0.288-0.25 0.689-0.374 1.202-0.375v0c0.661 0 1.17 0.216 1.529 0.648 0.361 0.435 0.549 1.092 0.564 1.973v0c0.308-0.852 0.771-1.505 1.387-1.96 0.617-0.455 1.387-0.683 2.312-0.683v0c1.204 0 2.095 0.374 2.674 1.123 0.581 0.749 0.872 1.865 0.872 3.348v0zM196.756 205.363c-1.16 0-2.126-0.213-2.898-0.639-0.769-0.426-1.154-1.072-1.154-1.938v0c0-0.529 0.172-0.954 0.516-1.277 0.346-0.323 0.791-0.484 1.334-0.484v0c0.587 0 0.991 0.147 1.211 0.44v0c-0.426 0.367-0.639 0.852-0.638 1.454v0c0 0.499 0.147 0.888 0.44 1.167 0.294 0.279 0.719 0.418 1.277 0.418v0c1.013 0 1.776-0.426 2.291-1.277 0.514-0.852 0.771-2.041 0.771-3.568v0c0-0.719 0.007-1.248 0.022-1.585v0c-0.264 0.734-0.687 1.299-1.269 1.695-0.578 0.396-1.286 0.595-2.123 0.595v0c-1.233 0-2.195-0.438-2.885-1.312-0.69-0.872-1.035-2.262-1.035-4.171v0c0-1.85 0.414-3.337 1.242-4.462 0.831-1.122 2.186-1.682 4.066-1.683v0c0.896 0 1.75 0.125 2.563 0.375 0.816 0.25 1.489 0.609 2.017 1.079v0 9.205c0 2.099-0.514 3.619-1.541 4.559-1.028 0.94-2.43 1.409-4.207 1.409zM197.307 199.109c0.852 0 1.493-0.386 1.925-1.159 0.435-0.769 0.652-1.793 0.651-3.069v0l0.023-4.625c-0.206-0.176-0.477-0.316-0.815-0.419-0.338-0.103-0.69-0.154-1.057-0.154v0c-1.013 0-1.707 0.465-2.084 1.396-0.373 0.934-0.559 2.289-0.559 4.066v0c0 1.453 0.142 2.477 0.427 3.07 0.288 0.596 0.784 0.894 1.489 0.894z" fill="#ffffff" fill-rule="nonzero" stroke="none" stroke-width="1" stroke-linecap="butt" stroke-linejoin="miter" stroke-miterlimit="10" stroke-dasharray="" stroke-dashoffset="0" font-family="none" font-weight="none" font-size="none" text-anchor="none" style="mix-blend-mode: normal" data-fill-palette-color="secondary"></path></g></g><g transform="matrix(1,0,0,1,29.331764404296877,49.90891975879018)"><svg viewBox="0 0 316.416 54.50869856835715" height="54.50869856835715" width="316.416"><g><svg viewBox="0 0 411.1198186217477 70.8232398763985" height="54.50869856835715" width="316.416"><g><rect width="4.621499899882178" height="51.50315200852423" x="77.98415144468703" y="9.660043933937136" fill="#ffffff" opacity="1" stroke-width="0" stroke="transparent" fill-opacity="1" class="rect-o-0" data-fill-palette-color="primary" rx="1%" id="o-0" data-palette-color="#ffffff"></rect></g><g transform="matrix(1,0,0,1,94.70381862174769,9.788161227490676)"><svg viewBox="0 0 316.416 51.24691742141715" height="51.24691742141715" width="316.416"><g id="textblocktransform"><svg viewBox="0 0 316.416 51.24691742141715" height="51.24691742141715" width="316.416" id="textblock"><g><svg viewBox="0 0 316.416 51.24691742141715" height="51.24691742141715" width="316.416"><g transform="matrix(1,0,0,1,0,0)"><svg width="316.416" viewBox="2.5399999618530273 -29.25 184.17001342773438 29.690000534057617" height="51.24691742141715" data-palette-color="#ffffff"><g class="wordmark-text-0" data-fill-palette-color="primary" id="text-0"><path d="M11.96 0.44L11.96 0.44Q9.91 0.44 7.32-0.2 4.74-0.83 2.73-1.9L2.73-1.9 2.54-9.67 6.35-9.86 8.15-4.39Q8.94-3.91 10.18-3.56 11.43-3.22 12.55-3.22L12.55-3.22Q14.55-3.22 15.55-3.98 16.55-4.74 16.55-6.1L16.55-6.1Q16.55-7.71 15.55-8.69 14.55-9.67 12.96-10.3 11.38-10.94 9.57-11.57 7.76-12.21 6.18-13.18 4.59-14.16 3.59-15.75 2.59-17.33 2.59-19.92L2.59-19.92Q2.59-22.71 4.2-24.8 5.81-26.9 8.74-28.08 11.67-29.25 15.63-29.25L15.63-29.25Q16.65-29.25 18.02-29.05 19.38-28.86 20.7-28.54 22.02-28.22 22.95-27.78L22.95-27.78 23.68-20.02 19.97-19.82 18.26-25.05Q16.89-25.63 15.14-25.63L15.14-25.63Q13.53-25.63 12.3-24.78 11.08-23.93 11.08-22.17L11.08-22.17Q11.08-20.65 12.11-19.73 13.13-18.8 14.75-18.12 16.36-17.43 18.19-16.75 20.02-16.06 21.63-15.09 23.24-14.11 24.27-12.57 25.29-11.04 25.29-8.64L25.29-8.64Q25.29-6.01 23.63-3.96 21.97-1.9 18.99-0.73 16.02 0.44 11.96 0.44ZM60.35 0L45.55 0 45.41-2.78 48.44-3.71Q48.53-4 48.61-5.22 48.68-6.45 48.73-8.13 48.78-9.81 48.78-11.43L48.78-11.43 48.78-17.29Q48.78-18.95 48.73-20.65 48.68-22.36 48.61-23.58 48.53-24.8 48.44-25.05L48.44-25.05 45.41-25.88 45.55-28.66 60.35-28.66 60.5-25.88 57.32-25.05Q57.27-24.8 57.18-23.44 57.08-22.07 57-20.34 56.93-18.6 56.93-17.29L56.93-17.29 56.93-11.43Q56.93-10.16 57-8.45 57.08-6.74 57.18-5.37 57.27-4 57.32-3.71L57.32-3.71 60.5-2.78 60.35 0ZM42.87 0L28.07 0 27.93-2.78 31.1-3.71Q31.2-3.91 31.3-5.03 31.39-6.15 31.44-7.86 31.49-9.57 31.49-11.43L31.49-11.43 31.49-17.29Q31.49-19.19 31.44-20.9 31.39-22.61 31.3-23.75 31.2-24.9 31.1-25.05L31.1-25.05 27.93-25.88 28.07-28.66 42.87-28.66 43.02-25.88 39.99-25.05Q39.89-24.8 39.82-23.58 39.74-22.36 39.69-20.65 39.65-18.95 39.65-17.29L39.65-17.29 39.65-11.43Q39.65-9.81 39.69-8.13 39.74-6.45 39.82-5.22 39.89-4 39.99-3.71L39.99-3.71 43.02-2.78 42.87 0ZM38.13-12.45L38.13-12.45 38.13-16.7Q39.5-16.55 40.82-16.5 42.14-16.46 44.19-16.46L44.19-16.46Q46.24-16.46 47.56-16.5 48.87-16.55 50.24-16.7L50.24-16.7 50.24-12.45Q49.31-12.45 47.85-12.55 46.38-12.65 44.19-12.65L44.19-12.65Q41.99-12.65 40.57-12.55 39.16-12.45 38.13-12.45ZM80.07 0.44L80.07 0.44Q75.43 0.44 71.8-1.42 68.16-3.27 66.08-6.49 64.01-9.72 64.01-13.82L64.01-13.82Q64.01-18.26 66.06-21.7 68.11-25.15 71.75-27.12 75.39-29.1 80.02-29.1L80.02-29.1Q84.57-29.1 88.03-27.29 91.5-25.49 93.45-22.27 95.41-19.04 95.41-14.84L95.41-14.84Q95.41-10.74 93.87-7.84 92.33-4.93 89.94-3.1 87.54-1.27 84.91-0.42 82.27 0.44 80.07 0.44ZM80.37-3.81L80.37-3.81Q82.37-3.81 83.61-4.91 84.86-6.01 85.44-8.18 86.03-10.35 86.03-13.53L86.03-13.53Q86.03-17.19 85.22-19.82 84.42-22.46 82.95-23.9 81.49-25.34 79.44-25.34L79.44-25.34Q76.66-25.34 75.04-22.78 73.43-20.21 73.43-15.58L73.43-15.58Q73.43-12.11 74.31-9.45 75.19-6.79 76.75-5.3 78.32-3.81 80.37-3.81ZM114.89 0L99.26 0 99.11-2.78 102.09-3.71Q102.24-3.91 102.31-5.08 102.39-6.25 102.43-7.91 102.48-9.57 102.48-11.18L102.48-11.18 102.53-17.68Q102.53-19.24 102.48-20.9 102.43-22.56 102.36-23.8 102.29-25.05 102.14-25.24L102.14-25.24 98.97-25.88 99.11-28.66 112.79-28.66Q119.52-28.66 122.67-26.46 125.82-24.27 125.82-20.17L125.82-20.17Q125.82-17.48 124.41-15.23 122.99-12.99 120.13-11.65 117.28-10.3 112.93-10.3L112.93-10.3Q112.3-10.3 111.52-10.4 110.73-10.5 110.05-10.64L110.05-10.64 110.05-14.45Q110.3-14.31 111.08-14.14 111.86-13.96 113.03-13.96L113.03-13.96Q115.03-13.96 116.08-15.43 117.13-16.89 117.13-19.48L117.13-19.48Q117.13-22.66 115.67-24.12 114.2-25.59 111.32-25.59L111.32-25.59 110.73-25.59Q110.73-25.15 110.71-24.29 110.69-23.44 110.69-21.85 110.69-20.26 110.69-17.68L110.69-17.68 110.73-11.18Q110.73-9.57 110.81-7.91 110.88-6.25 110.95-5.08 111.03-3.91 111.08-3.66L111.08-3.66 115.03-2.88 114.89 0ZM144.72 0L129.09 0 128.95-2.78 131.92-3.71Q132.07-3.91 132.14-5.08 132.22-6.25 132.27-7.91 132.31-9.57 132.31-11.18L132.31-11.18 132.36-17.68Q132.36-19.24 132.31-20.9 132.27-22.56 132.19-23.8 132.12-25.05 131.97-25.24L131.97-25.24 128.8-25.88 128.95-28.66 142.62-28.66Q149.36-28.66 152.5-26.46 155.65-24.27 155.65-20.17L155.65-20.17Q155.65-17.48 154.24-15.23 152.82-12.99 149.97-11.65 147.11-10.3 142.76-10.3L142.76-10.3Q142.13-10.3 141.35-10.4 140.57-10.5 139.88-10.64L139.88-10.64 139.88-14.45Q140.13-14.31 140.91-14.14 141.69-13.96 142.86-13.96L142.86-13.96Q144.86-13.96 145.91-15.43 146.96-16.89 146.96-19.48L146.96-19.48Q146.96-22.66 145.5-24.12 144.03-25.59 141.15-25.59L141.15-25.59 140.57-25.59Q140.57-25.15 140.54-24.29 140.52-23.44 140.52-21.85 140.52-20.26 140.52-17.68L140.52-17.68 140.57-11.18Q140.57-9.57 140.64-7.91 140.71-6.25 140.79-5.08 140.86-3.91 140.91-3.66L140.91-3.66 144.86-2.88 144.72 0ZM186.71-25.88L184.22-24.95 173.57-7.81 176.31-13.72 176.31-8.69Q176.31-8.4 176.31-7.67 176.31-6.93 176.35-6.08 176.4-5.22 176.45-4.54 176.5-3.86 176.6-3.71L176.6-3.71 180.02-2.83 179.87 0 164.73 0 164.59-2.83 168.01-3.71Q168.1-3.86 168.13-4.54 168.15-5.22 168.2-6.08 168.25-6.93 168.25-7.67 168.25-8.4 168.25-8.69L168.25-8.69 168.25-13.72 170.2-7.81 160.39-24.95 157.9-25.88 158.04-28.66 172.74-28.66 172.89-25.88 169.71-24.95 175.33-14.89 173.91-14.89 179.58-24.95 176.16-25.88 176.31-28.66 186.56-28.66 186.71-25.88Z" fill="#ffffff" data-fill-palette-color="primary"></path></g></svg></g></svg></g></svg></g></svg></g><g><svg viewBox="0 0 65.88598416750855 70.8232398763985" height="70.8232398763985" width="65.88598416750855"><g><svg xmlns="http://www.w3.org/2000/svg" xmlns:xlink="http://www.w3.org/1999/xlink" version="1.1" x="0" y="0" viewBox="8.911556243896484 4.988999366760254 82.17788696289062 88.33599853515625" enable-background="new 0 0 100 100" xml:space="preserve" height="70.8232398763985" width="65.88598416750855" class="icon-icon-0" data-fill-palette-color="accent" id="icon-0"><path d="M90.83 52.403c-0.038-0.056-3.838-5.639-8.306-11.146C74.09 30.86 70.626 29.658 68.754 29.658h-6.1c-0.05 0-0.098 0.01-0.146 0.015l-10.197-6.325v-3.296c3.369-0.794 5.887-3.818 5.887-7.426 0-4.211-3.426-7.637-7.637-7.637s-7.637 3.426-7.637 7.637c0 0.966 0.784 1.75 1.75 1.75s1.75-0.784 1.75-1.75c0-2.281 1.856-4.137 4.137-4.137 2.281 0 4.137 1.856 4.137 4.137s-1.855 4.137-4.137 4.137c-0.966 0-1.75 0.784-1.75 1.75v4.838l-10.171 6.308h-4.731H31.42c-5.827 0-18.493 17.395-22.236 22.726-0.452 0.645-0.33 1.528 0.28 2.025l14.08 11.478c0.278 0.228 0.614 0.338 0.947 0.338 0.436 0 0.867-0.188 1.164-0.552l1.434-1.759v27.91c0 0.828 0.671 1.5 1.5 1.5h43.167c0.828 0 1.5-0.672 1.5-1.5V64.332l1.094 1.341c0.296 0.363 0.728 0.552 1.163 0.552 0.333 0 0.668-0.11 0.947-0.338l14.079-11.479C91.14 53.917 91.267 53.047 90.83 52.403zM50.562 26.382l10.498 6.511c-0.54 3.474-3.567 6.145-7.223 6.145h-5.834c-3.787 0-6.906-2.891-7.251-6.571L50.562 26.382z" fill="#ffffff" data-fill-palette-color="accent"></path></svg></g></svg></g></svg></g></svg></g></svg></g><defs></defs></svg><rect width="375.07952880859375" height="154.3265380859375" fill="none" stroke="none" visibility="hidden"></rect></g></svg></g></svg>