<svg xmlns="http://www.w3.org/2000/svg" version="1.1" xmlns:xlink="http://www.w3.org/1999/xlink" xmlns:svgjs="http://svgjs.dev/svgjs" width="1440" height="560" preserveAspectRatio="none" viewBox="0 0 1440 560">
    <g mask="url(&quot;#SvgjsMask1459&quot;)" fill="none">
        <path d="M419.59 63.43a5.6 5.6 0 1 0-5.89 9.52 5.6 5.6 0 1 0 5.89-9.52zM411.18 77.04a5.6 5.6 0 1 0-5.89 9.53 5.6 5.6 0 1 0 5.89-9.53zM402.77 90.65a5.6 5.6 0 1 0-5.89 9.53 5.6 5.6 0 1 0 5.89-9.53zM394.36 104.26a5.6 5.6 0 1 0-5.89 9.53 5.6 5.6 0 1 0 5.89-9.53zM422.8 27.79a5.6 5.6 0 1 0-5.89 9.53 5.6 5.6 0 1 0 5.89-9.53zM414.39 41.4a5.6 5.6 0 1 0-5.89 9.53 5.6 5.6 0 1 0 5.89-9.53zM405.98 55.02a5.6 5.6 0 1 0-5.89 9.52 5.6 5.6 0 1 0 5.89-9.52zM397.57 68.63a5.6 5.6 0 1 0-5.89 9.53 5.6 5.6 0 1 0 5.89-9.53zM426-7.84a5.6 5.6 0 1 0-5.88 9.53 5.6 5.6 0 1 0 5.88-9.53zM417.59 5.77a5.6 5.6 0 1 0-5.88 9.53 5.6 5.6 0 1 0 5.88-9.53zM409.18 19.38a5.6 5.6 0 1 0-5.88 9.53 5.6 5.6 0 1 0 5.88-9.53zM400.77 32.99a5.6 5.6 0 1 0-5.88 9.53 5.6 5.6 0 1 0 5.88-9.53z" stroke="rgba(255, 191, 155, 1)" stroke-width="1"></path>
        <rect width="162.4" height="162.4" clip-path="url(&quot;#SvgjsClipPath1460&quot;)" x="482.53" y="152.82" fill="url(&quot;#SvgjsPattern1461&quot;)" transform="rotate(341.68, 563.73, 234.02)"></rect>
        <path d="M1056.22 538.6800000000001 L1225.19 500.46000000000004L1064.9585886967611 443.82358869676113z" fill="rgba(255, 191, 155, 1)"></path>
        <path d="M490.73 311.61a5.6 5.6 0 1 0 1.21 11.14 5.6 5.6 0 1 0-1.21-11.14zM492.46 327.52a5.6 5.6 0 1 0 1.21 11.13 5.6 5.6 0 1 0-1.21-11.13zM494.18 343.43a5.6 5.6 0 1 0 1.21 11.13 5.6 5.6 0 1 0-1.21-11.13zM495.91 359.33a5.6 5.6 0 1 0 1.21 11.14 5.6 5.6 0 1 0-1.21-11.14zM471.37 281.53a5.6 5.6 0 1 0 1.21 11.13 5.6 5.6 0 1 0-1.21-11.13zM473.09 297.43a5.6 5.6 0 1 0 1.21 11.14 5.6 5.6 0 1 0-1.21-11.14zM474.82 313.34a5.6 5.6 0 1 0 1.21 11.14 5.6 5.6 0 1 0-1.21-11.14zM476.55 329.25a5.6 5.6 0 1 0 1.21 11.13 5.6 5.6 0 1 0-1.21-11.13zM452 251.44a5.6 5.6 0 1 0 1.21 11.14 5.6 5.6 0 1 0-1.21-11.14zM453.73 267.35a5.6 5.6 0 1 0 1.21 11.13 5.6 5.6 0 1 0-1.21-11.13zM455.46 283.26a5.6 5.6 0 1 0 1.21 11.13 5.6 5.6 0 1 0-1.21-11.13zM457.19 299.16a5.6 5.6 0 1 0 1.21 11.14 5.6 5.6 0 1 0-1.21-11.14z" fill="rgba(255, 191, 155, 1)"></path>
        <rect width="288" height="288" clip-path="url(&quot;#SvgjsClipPath1462&quot;)" x="567.3" y="-27.61" fill="url(&quot;#SvgjsPattern1463&quot;)" transform="rotate(347.05, 711.3, 116.39)"></rect>
        <circle r="81.46191935493475" cx="1393.52" cy="545.04" fill="rgba(255, 191, 155, 1)"></circle>
        <rect width="234" height="234" clip-path="url(&quot;#SvgjsClipPath1464&quot;)" x="-82.94" y="392.27" fill="url(&quot;#SvgjsPattern1465&quot;)" transform="rotate(119.74, 34.06, 509.27)"></rect>
        <rect width="280.32" height="280.32" clip-path="url(&quot;#SvgjsClipPath1466&quot;)" x="-2.6" y="124.46" fill="url(&quot;#SvgjsPattern1467&quot;)" transform="rotate(134.92, 137.56, 264.62)"></rect>
        <rect width="126.8" height="126.8" clip-path="url(&quot;#SvgjsClipPath1468&quot;)" x="84.66" y="46.49" fill="url(&quot;#SvgjsPattern1469&quot;)" transform="rotate(245.62, 148.06, 109.89)"></rect>
        <path d="M1410.13 705.82 L1411.72 575.09L1349.1670041884058 578.6970041884056z" stroke="rgba(255, 191, 155, 1)" stroke-width="1.43" stroke-dasharray="4, 4"></path>
        <path d="M606.5 287.26L598.27 277.45 606.04 267.26 597.8 257.45 605.57 247.27 597.34 237.46 605.1 227.27" stroke="rgba(255, 191, 155, 1)" stroke-width="1.15"></path>
        <rect width="280.8" height="280.8" clip-path="url(&quot;#SvgjsClipPath1470&quot;)" x="212.95" y="23.68" fill="url(&quot;#SvgjsPattern1471&quot;)" transform="rotate(59.91, 353.35, 164.08)"></rect>
    </g>
    <defs>
        <mask id="SvgjsMask1459">
            <rect width="1440" height="560" fill="#ffffff"></rect>
        </mask>
        <pattern x="0" y="0" width="162.4" height="8.12" patternUnits="userSpaceOnUse" id="SvgjsPattern1461">
            <rect width="162.4" height="4.06" x="0" y="0" fill="rgba(255, 191, 155, 1)"></rect>
            <rect width="162.4" height="4.06" x="0" y="4.06" fill="rgba(0, 0, 0, 0)"></rect>
        </pattern>
        <clipPath id="SvgjsClipPath1460">
            <circle r="40.6" cx="563.73" cy="234.02"></circle>
        </clipPath>
        <pattern x="0" y="0" width="6" height="6" patternUnits="userSpaceOnUse" id="SvgjsPattern1463">
            <path d="M0 6L3 0L6 6" stroke="rgba(255, 191, 155, 1)" fill="none"></path>
        </pattern>
        <clipPath id="SvgjsClipPath1462">
            <circle r="72" cx="711.3" cy="116.39"></circle>
        </clipPath>
        <pattern x="0" y="0" width="234" height="13" patternUnits="userSpaceOnUse" id="SvgjsPattern1465">
            <rect width="234" height="6.5" x="0" y="0" fill="rgba(255, 191, 155, 1)"></rect>
            <rect width="234" height="6.5" x="0" y="6.5" fill="rgba(0, 0, 0, 0)"></rect>
        </pattern>
        <clipPath id="SvgjsClipPath1464">
            <circle r="58.5" cx="34.06" cy="509.27"></circle>
        </clipPath>
        <pattern x="0" y="0" width="8.76" height="8.76" patternUnits="userSpaceOnUse" id="SvgjsPattern1467">
            <path d="M0 8.76L4.38 0L8.76 8.76" stroke="rgba(255, 191, 155, 1)" fill="none"></path>
        </pattern>
        <clipPath id="SvgjsClipPath1466">
            <circle r="70.08" cx="137.56" cy="264.62"></circle>
        </clipPath>
        <pattern x="0" y="0" width="12.68" height="12.68" patternUnits="userSpaceOnUse" id="SvgjsPattern1469">
            <path d="M6.34 1L6.34 11.68M1 6.34L11.68 6.34" stroke="rgba(255, 191, 155, 1)" fill="none" stroke-width="3.79"></path>
        </pattern>
        <clipPath id="SvgjsClipPath1468">
            <circle r="31.7" cx="148.06" cy="109.89"></circle>
        </clipPath>
        <pattern x="0" y="0" width="11.7" height="11.7" patternUnits="userSpaceOnUse" id="SvgjsPattern1471">
            <path d="M5.85 1L5.85 10.7M1 5.85L10.7 5.85" stroke="rgba(255, 191, 155, 1)" fill="none" stroke-width="4.19"></path>
        </pattern>
        <clipPath id="SvgjsClipPath1470">
            <circle r="70.2" cx="353.35" cy="164.08"></circle>
        </clipPath>
    </defs>
</svg>